<svg width="562" height="517" viewBox="0 0 562 517" fill="none" xmlns="http://www.w3.org/2000/svg">
<rect x="1" y="1" width="560" height="515" rx="2" fill="#A0ABC0"/>
<path fill-rule="evenodd" clip-rule="evenodd" d="M253.467 224.11C249.689 224.11 246.626 227.174 246.626 230.954V286.046C246.626 289.687 249.468 292.664 253.054 292.878L296.008 249.904C296.2 249.711 296.461 249.603 296.733 249.603C297.005 249.603 297.266 249.711 297.459 249.904L315.374 267.827V230.954C315.374 227.174 312.311 224.11 308.533 224.11H253.467ZM317.426 270.304V230.954C317.426 226.04 313.445 222.057 308.533 222.057H253.467C248.555 222.057 244.574 226.04 244.574 230.954V286.046C244.574 290.96 248.555 294.943 253.467 294.943H308.533C313.445 294.943 317.426 290.96 317.426 286.046V270.308C317.426 270.306 317.426 270.305 317.426 270.304ZM315.374 270.731L296.733 252.081L255.944 292.89H308.533C312.311 292.89 315.374 289.826 315.374 286.046V270.731ZM267.233 239.851C264.542 239.851 262.359 242.034 262.359 244.727C262.359 247.42 264.542 249.603 267.233 249.603C269.925 249.603 272.107 247.42 272.107 244.727C272.107 242.034 269.925 239.851 267.233 239.851ZM260.307 244.727C260.307 240.9 263.408 237.798 267.233 237.798C271.059 237.798 274.159 240.9 274.159 244.727C274.159 248.554 271.059 251.656 267.233 251.656C263.408 251.656 260.307 248.554 260.307 244.727Z" fill="#111827"/>
<rect x="1" y="1" width="560" height="515" rx="2" stroke="black" stroke-width="2"/>
</svg>
