<svg width="247" height="168" viewBox="0 0 247 168" fill="none" xmlns="http://www.w3.org/2000/svg">
<rect width="247" height="168" rx="3" fill="#A0ABC0"/>
<path fill-rule="evenodd" clip-rule="evenodd" d="M95.9667 49.6098C92.1888 49.6098 89.1261 52.6739 89.1261 56.4536V111.546C89.1261 115.187 91.9682 118.164 95.554 118.378L138.508 75.4036C138.7 75.2111 138.961 75.1029 139.233 75.1029C139.506 75.1029 139.767 75.2111 139.959 75.4036L157.874 93.3271V56.4536C157.874 52.6739 154.811 49.6098 151.033 49.6098H95.9667ZM159.926 95.8034V56.4536C159.926 51.5399 155.945 47.5566 151.033 47.5566H95.9667C91.0554 47.5566 87.074 51.5399 87.074 56.4536V111.546C87.074 116.46 91.0554 120.443 95.9667 120.443H151.033C155.945 120.443 159.926 116.46 159.926 111.546V95.8074C159.926 95.8061 159.926 95.8048 159.926 95.8034ZM157.874 96.2307L139.233 77.5813L98.4439 118.39H151.033C154.811 118.39 157.874 115.326 157.874 111.546V96.2307ZM109.733 65.3505C107.042 65.3505 104.859 67.5337 104.859 70.2267C104.859 72.9198 107.042 75.1029 109.733 75.1029C112.425 75.1029 114.607 72.9198 114.607 70.2267C114.607 67.5337 112.425 65.3505 109.733 65.3505ZM102.807 70.2267C102.807 66.3998 105.908 63.2974 109.733 63.2974C113.559 63.2974 116.659 66.3998 116.659 70.2267C116.659 74.0537 113.559 77.1561 109.733 77.1561C105.908 77.1561 102.807 74.0537 102.807 70.2267Z" fill="#111827"/>
</svg>
