<svg width="160" height="159" viewBox="0 0 160 159" fill="none" xmlns="http://www.w3.org/2000/svg">
<g id="Group">
<path id="W" d="M67.3448 153.073L69.8885 142.222L72.0472 142.423L72.3742 150.656L74.2537 142.628L76.4601 142.833L76.8398 153.956L75.0555 153.79L75.0436 144.501L73.1428 152.327L71.239 152.149L70.8776 144.113L68.9936 153.226L67.3448 153.073Z" fill="#1E293B"/>
<path id="e" d="M62.0727 144.194C62.1979 143.631 62.2121 143.143 62.1152 142.732C62.0169 142.325 61.8302 141.993 61.5553 141.735C61.2753 141.476 60.9407 141.29 60.5515 141.177C60.1521 141.06 59.7655 141.014 59.3918 141.039C59.018 141.063 58.6268 141.138 58.2181 141.264L57.7727 140.018C58.2411 139.821 58.7556 139.704 59.3162 139.667C59.8768 139.63 60.4465 139.696 61.0251 139.865C61.8649 140.109 62.5245 140.496 63.0039 141.024C63.4782 141.551 63.7733 142.178 63.8891 142.906C64.0048 143.634 63.9405 144.418 63.696 145.258C63.459 146.072 63.0988 146.756 62.6154 147.31C62.1306 147.869 61.5573 148.254 60.8954 148.467C60.232 148.685 59.5163 148.682 58.7482 148.459C58.0262 148.249 57.4543 147.904 57.0325 147.426C56.6056 146.946 56.3392 146.363 56.2335 145.677C56.1211 144.994 56.188 144.231 56.4339 143.386C56.4742 143.247 56.5196 143.111 56.57 142.975C56.6139 142.844 56.6559 142.728 56.6959 142.629L62.0727 144.194ZM59.104 147.179C59.6417 147.336 60.1431 147.273 60.6082 146.992C61.0683 146.71 61.4449 146.169 61.7383 145.372L57.9822 144.278C57.7755 145.046 57.7686 145.68 57.9618 146.18C58.1497 146.679 58.5305 147.012 59.104 147.179Z" fill="#1E293B"/>
<path id="b" d="M48.1201 142.95C47.6839 143.158 47.2427 143.27 46.7964 143.287C46.3455 143.302 45.9112 143.202 45.4936 142.988C44.8339 142.649 44.384 142.212 44.1438 141.675C43.8964 141.141 43.8299 140.528 43.9442 139.838C44.0514 139.149 44.3095 138.407 44.7183 137.609C45.1101 136.845 45.5733 136.223 46.1077 135.741C46.6421 135.26 47.22 134.963 47.8413 134.85C48.4579 134.735 49.0913 134.844 49.7414 135.177C50.5814 135.608 51.0817 136.257 51.2422 137.125L51.7072 136.428L53.1096 137.147L47.7069 147.683L46.0211 147.043L48.1201 142.95ZM49.5158 136.599C48.9748 136.322 48.444 136.328 47.9235 136.619C47.3982 136.907 46.8934 137.523 46.4091 138.467C46.0805 139.108 45.8734 139.658 45.7876 140.118C45.6994 140.582 45.7241 140.966 45.8617 141.27C45.9946 141.572 46.2271 141.808 46.5593 141.979C46.9153 142.161 47.2832 142.215 47.6632 142.14C48.0433 142.065 48.4024 141.932 48.7407 141.74L50.544 138.223C50.5071 137.863 50.4055 137.541 50.239 137.258C50.0654 136.977 49.8243 136.757 49.5158 136.599Z" fill="#1E293B"/>
<path id="D" d="M25.6525 122.611C24.9885 123.189 24.513 123.719 24.2261 124.201C23.9357 124.68 23.7821 125.121 23.7653 125.525C23.7451 125.924 23.816 126.29 23.9781 126.623C24.1366 126.951 24.3367 127.254 24.5782 127.532L25.2449 128.299L31.4382 122.912L30.7661 122.139C30.5141 121.85 30.2246 121.61 29.8976 121.421C29.5705 121.232 29.1995 121.13 28.7846 121.117C28.3663 121.099 27.8996 121.204 27.3846 121.433C26.8657 121.665 26.2883 122.058 25.6525 122.611ZM24.3714 121.138C25.0596 120.54 25.7119 120.103 26.3283 119.828C26.9412 119.55 27.5207 119.399 28.0666 119.377C28.605 119.354 29.11 119.431 29.5816 119.607C30.0457 119.783 30.4749 120.025 30.8694 120.332C31.2638 120.639 31.622 120.978 31.944 121.348L33.7186 123.388L25.3885 130.633L23.7347 128.732C23.2937 128.225 22.921 127.687 22.6167 127.117C22.3088 126.544 22.1373 125.94 22.102 125.307C22.0633 124.669 22.2155 124.003 22.5588 123.308C22.902 122.614 23.5062 121.891 24.3714 121.138Z" fill="#1E293B"/>
<path id="e_2" d="M22.1778 114.215C22.6574 113.894 23.0043 113.551 23.2183 113.186C23.4278 112.824 23.5221 112.455 23.5013 112.079C23.4778 111.698 23.3644 111.332 23.1611 110.982C22.9525 110.622 22.7046 110.322 22.4173 110.081C22.1301 109.841 21.7953 109.625 21.4131 109.434L21.9514 108.225C22.4262 108.406 22.879 108.676 23.3099 109.037C23.7408 109.397 24.1074 109.838 24.4096 110.36C24.8482 111.117 25.0585 111.852 25.0404 112.565C25.0196 113.273 24.7997 113.931 24.3807 114.538C23.9617 115.144 23.3738 115.667 22.6171 116.105C21.8834 116.531 21.1506 116.777 20.4187 116.843C19.6822 116.913 19.0011 116.796 18.3754 116.493C17.7451 116.192 17.2294 115.696 16.8282 115.004C16.4511 114.353 16.2752 113.709 16.3003 113.072C16.3229 112.43 16.5328 111.825 16.9302 111.255C17.3203 110.684 17.896 110.178 18.6574 109.736C18.782 109.664 18.9092 109.596 19.0392 109.534C19.1618 109.469 19.2719 109.414 19.3696 109.37L22.1778 114.215ZM17.9691 114.324C18.25 114.808 18.6557 115.11 19.1863 115.227C19.7142 115.341 20.3597 115.21 21.1228 114.835L19.1611 111.451C18.4816 111.863 18.0388 112.317 17.8328 112.813C17.6242 113.303 17.6696 113.807 17.9691 114.324Z" fill="#1E293B"/>
<path id="v" d="M10.1504 98.7145L19.1072 98.75L19.7958 100.73L12.7944 106.316L12.1636 104.502L18.033 100.191L10.7523 100.445L10.1504 98.7145Z" fill="#1E293B"/>
<path id="e_3" d="M13.352 90.3849C13.9167 90.2651 14.3662 90.0759 14.7005 89.8172C15.0295 89.5593 15.2543 89.2518 15.3749 88.8947C15.4948 88.5324 15.5256 88.1507 15.4673 87.7496C15.4075 87.3379 15.289 86.9671 15.1118 86.6371C14.9345 86.3072 14.7041 85.9822 14.4205 85.6623L15.3699 84.7403C15.7433 85.0849 16.0629 85.5047 16.3288 85.9996C16.5947 86.4946 16.7709 87.0402 16.8575 87.6366C16.9832 88.5022 16.905 89.2627 16.6229 89.918C16.34 90.5681 15.8913 91.0967 15.2768 91.5039C14.6623 91.9111 13.9222 92.1775 13.0566 92.3032C12.2174 92.4251 11.4457 92.3808 10.7415 92.1705C10.032 91.9609 9.44328 91.5991 8.97522 91.085C8.50188 90.5717 8.20774 89.9192 8.09279 89.1275C7.98474 88.3833 8.06091 87.7201 8.3213 87.138C8.58092 86.5506 9.00106 86.0666 9.58172 85.6858C10.1563 85.3006 10.8791 85.0448 11.7499 84.9183C11.8924 84.8976 12.0357 84.8822 12.1797 84.8721C12.3177 84.8574 12.4403 84.8477 12.5474 84.843L13.352 90.3849ZM9.40471 88.9208C9.48518 89.475 9.74977 89.9055 10.1985 90.2122C10.6465 90.5136 11.2943 90.6324 12.1419 90.5686L11.5798 86.6972C10.7957 86.8273 10.2158 87.0839 9.84035 87.4672C9.4641 87.8451 9.31888 88.3297 9.40471 88.9208Z" fill="#1E293B"/>
<path id="l" d="M4.39358 75.0501L13.9193 75.4921C14.3082 75.5101 14.5907 75.4058 14.7668 75.179C14.9377 74.9467 15.032 74.6414 15.0495 74.2631C15.0609 74.0181 15.045 73.7851 15.0019 73.5642C14.9587 73.3433 14.902 73.1271 14.8317 72.9156L16.0995 72.5179C16.2158 72.7742 16.3133 73.0884 16.3922 73.4605C16.4712 73.8272 16.4999 74.245 16.4782 74.7138C16.4389 75.5609 16.1711 76.2105 15.675 76.6627C15.1737 77.1093 14.5076 77.3133 13.6764 77.2747L5.6291 76.9013L5.51082 79.4506L4.19224 79.3894L4.39358 75.0501Z" fill="#1E293B"/>
<path id="o" d="M9.5843 61.9597C9.77833 61.1562 10.1205 60.5228 10.611 60.0596C11.1014 59.5965 11.7018 59.3025 12.4123 59.1778C13.124 59.0479 13.9153 59.0881 14.7863 59.2984C15.6521 59.5074 16.3765 59.836 16.9596 60.284C17.5388 60.7256 17.9429 61.2676 18.1719 61.9099C18.3969 62.5459 18.4137 63.2604 18.2221 64.0536C18.0306 64.8468 17.6942 65.4789 17.2129 65.9497C16.7277 66.4141 16.126 66.7133 15.4079 66.8471C14.691 66.9758 13.8919 66.9337 13.0105 66.7209C12.1551 66.5144 11.4378 66.1903 10.8586 65.7487C10.2807 65.3019 9.8772 64.7573 9.64824 64.115C9.41409 63.4714 9.39278 62.753 9.5843 61.9597ZM10.9374 62.2865C10.7859 62.9138 10.9131 63.4438 11.3189 63.8764C11.7195 64.3078 12.4305 64.6468 13.4518 64.8934C14.4679 65.1388 15.2546 65.1641 15.8118 64.9695C16.3704 64.7697 16.7253 64.3561 16.8768 63.7288C17.0283 63.1015 16.9005 62.5741 16.4934 62.1466C16.0877 61.7139 15.3715 61.3737 14.345 61.1258C13.3341 60.8817 12.5526 60.8576 12.0005 61.0535C11.4432 61.2482 11.0889 61.6592 10.9374 62.2865Z" fill="#1E293B"/>
<path id="p" d="M14.4631 48.3574C14.7726 47.6779 15.1877 47.2106 15.7083 46.9555C16.2241 46.6981 16.8273 46.6154 17.518 46.7074C18.2039 46.7971 18.9545 47.0277 19.7698 47.3992C20.5512 47.7552 21.1969 48.1841 21.7067 48.6859C22.2165 49.1878 22.5455 49.7391 22.6938 50.34C22.8442 50.936 22.7713 51.5592 22.475 52.2095C22.108 53.0152 21.5278 53.5362 20.7344 53.7726L24.3453 55.4176L23.7844 57.1313L12.9589 52.1995L13.6056 50.7799L14.6422 51.129C14.3768 50.6565 14.232 50.1832 14.2077 49.7091C14.1856 49.2302 14.2707 48.7796 14.4631 48.3574ZM15.5169 49.3825C15.3511 49.7465 15.3144 50.1166 15.4067 50.4927C15.4991 50.8689 15.6491 51.2214 15.8567 51.5505L19.4531 53.1889C19.8138 53.1305 20.1268 53.0093 20.3922 52.8255C20.655 52.6346 20.8594 52.379 21.0053 52.0587C21.2552 51.5102 21.2245 50.9922 20.9133 50.5047C20.6021 50.0171 19.9636 49.5533 18.9977 49.1133C18.3425 48.8148 17.7845 48.631 17.3238 48.5617C16.8604 48.4854 16.4821 48.5182 16.1889 48.6601C15.8979 48.7971 15.6739 49.0379 15.5169 49.3825Z" fill="#1E293B"/>
<path id="e_4" d="M24.0944 41.6512C24.5855 41.9545 25.0413 42.128 25.4617 42.1717C25.8778 42.2123 26.2528 42.1452 26.5866 41.9702C26.9234 41.7909 27.2093 41.5361 27.4442 41.2057C27.6852 40.8667 27.8555 40.5166 27.9552 40.1556C28.0548 39.7945 28.1125 39.4004 28.1283 38.9732L29.4517 38.9619C29.4838 39.4689 29.4251 39.9933 29.2757 40.5349C29.1262 41.0764 28.8769 41.5928 28.5277 42.084C28.0209 42.7969 27.4392 43.2929 26.7826 43.5721C26.1291 43.847 25.4396 43.9195 24.7139 43.7897C23.9882 43.6599 23.2689 43.3416 22.5561 42.8348C21.8649 42.3434 21.3373 41.7785 20.9732 41.1401C20.6047 40.4986 20.4287 39.8304 20.4452 39.1353C20.4572 38.4372 20.6951 37.7621 21.1586 37.1101C21.5943 36.4972 22.1074 36.0701 22.6977 35.8289C23.2911 35.5833 23.9292 35.5233 24.6121 35.6489C25.2937 35.767 25.9932 36.081 26.7104 36.5909C26.8277 36.6744 26.942 36.7621 27.0532 36.8543C27.1631 36.939 27.2585 37.0166 27.3392 37.0871L24.0944 41.6512ZM22.2502 37.8665C21.9257 38.3229 21.8199 38.817 21.9327 39.3487C22.0485 39.8761 22.4351 40.4093 23.0922 40.9485L25.3589 37.7601C24.702 37.3127 24.1054 37.098 23.5691 37.1159C23.036 37.1295 22.5963 37.3797 22.2502 37.8665Z" fill="#1E293B"/>
<path id="r" d="M33.7525 35.4453L32.8686 34.5195L33.7655 33.6632L29.6942 29.3986L28.7973 30.2549L27.9189 29.3348L29.8053 27.5339L31.396 28.7251C31.1338 27.9948 31.0434 27.3363 31.1249 26.7497C31.2066 26.1556 31.5136 25.6044 32.046 25.0962C32.2273 24.9231 32.404 24.7839 32.5762 24.6785C32.7486 24.5655 32.9282 24.4641 33.1152 24.3741L33.7881 25.8552C33.6315 25.9383 33.4919 26.0238 33.3691 26.1114C33.2427 26.1953 33.1139 26.2998 32.9827 26.425C32.5391 26.8485 32.3136 27.3808 32.3063 28.022C32.3028 28.6594 32.4995 29.3712 32.8962 30.1575L35.0617 32.4258L36.2942 31.2492L37.1781 32.175L33.7525 35.4453ZM34.1184 27.7188L32.6821 26.2143L32.1315 25.3132L33.1152 24.3741L35.0442 26.8349L34.1184 27.7188Z" fill="#1E293B"/>
<path id="." d="M54.5165 19.6833C54.4093 19.4159 54.375 19.151 54.4135 18.8885C54.4549 18.6191 54.5588 18.3764 54.725 18.1604C54.8913 17.9444 55.1081 17.7829 55.3754 17.6757C55.6477 17.5666 55.9185 17.5328 56.1879 17.5742C56.4573 17.6157 56.6976 17.7205 56.9086 17.8887C57.1226 18.05 57.2832 18.2644 57.3903 18.5317C57.4955 18.7941 57.5283 19.0625 57.4889 19.3368C57.4524 19.6042 57.351 19.8459 57.1848 20.062C57.0185 20.278 56.7992 20.4405 56.527 20.5496C56.2596 20.6567 55.9912 20.6896 55.7218 20.6481C55.4524 20.6067 55.2097 20.5029 54.9937 20.3366C54.7807 20.1634 54.6216 19.9456 54.5165 19.6833Z" fill="#1E293B"/>
<path id="U" d="M83.9073 4.96L83.9073 12.376C83.9073 13.128 83.7553 13.792 83.4513 14.368C83.1527 14.944 82.7153 15.3973 82.1393 15.728C81.5687 16.0533 80.8807 16.216 80.0753 16.216C79.254 16.216 78.5607 16.056 77.9953 15.736C77.43 15.4107 76.998 14.96 76.6993 14.384C76.406 13.8027 76.2593 13.1333 76.2593 12.376L76.2593 4.96L78.1153 4.96L78.1153 12.04C78.1153 12.936 78.27 13.6107 78.5793 14.064C78.8887 14.512 79.3873 14.736 80.0753 14.736C80.7633 14.736 81.262 14.512 81.5713 14.064C81.886 13.6107 82.0433 12.936 82.0433 12.04L82.0433 4.96L83.9073 4.96Z" fill="#1E293B"/>
<path id="I" d="M97.4367 7.04062L97.1685 8.43099L94.8276 7.97945L93.2745 16.031L95.6154 16.4826L95.3457 17.8808L88.8258 16.6232L89.0956 15.2249L91.4364 15.6765L92.9895 7.62489L90.6487 7.17335L90.9169 5.78298L97.4367 7.04062Z" fill="#1E293B"/>
<path id="/" d="M100.512 21.3395L99.4286 20.2158L110.969 9.6975L112.029 10.8376L100.512 21.3395Z" fill="#1E293B"/>
<path id="U_2" d="M123.499 19.1653L119.486 25.4021C119.079 26.0346 118.592 26.5108 118.025 26.8307C117.462 27.1535 116.849 27.2982 116.186 27.2646C115.53 27.2295 114.863 26.9941 114.186 26.5584C113.495 26.114 112.999 25.6043 112.696 25.0293C112.397 24.4499 112.277 23.8371 112.338 23.1911C112.406 22.5435 112.644 21.9013 113.054 21.2643L117.067 15.0275L118.627 16.0316L114.797 21.9859C114.312 22.7394 114.077 23.3905 114.092 23.9391C114.11 24.4833 114.408 24.9414 114.987 25.3137C115.565 25.6859 116.106 25.7673 116.608 25.5579C117.118 25.3469 117.616 24.8646 118.1 24.1111L121.931 18.1568L123.499 19.1653Z" fill="#1E293B"/>
<path id="X" d="M128.318 23.0476L129.805 24.4674L128.604 28.8182L132.912 27.4339L134.341 28.7983L128.628 30.3567L126.961 37.0157L125.474 35.596L126.946 30.5089L121.927 32.2096L120.492 30.8396L126.971 28.8957L128.318 23.0476Z" fill="#1E293B"/>
<path id="D_2" d="M143.474 53.3411C144.275 52.9763 144.881 52.6033 145.293 52.222C145.708 51.8456 145.981 51.4664 146.112 51.0845C146.244 50.7075 146.281 50.3364 146.22 49.9715C146.161 49.6113 146.056 49.2638 145.903 48.9289L145.482 48.0044L138.012 51.4072L138.437 52.339C138.596 52.6885 138.806 53.0004 139.065 53.2747C139.325 53.549 139.652 53.7518 140.046 53.883C140.442 54.019 140.919 54.0506 141.478 53.9778C142.042 53.9027 142.707 53.6905 143.474 53.3411ZM144.283 55.1175C143.453 55.4956 142.703 55.7286 142.034 55.8166C141.368 55.9094 140.769 55.8889 140.239 55.7552C139.717 55.6241 139.254 55.4069 138.853 55.1036C138.458 54.8029 138.115 54.4492 137.824 54.0424C137.533 53.6357 137.286 53.2091 137.083 52.7626L135.962 50.3019L146.008 45.725L147.053 48.0183C147.332 48.6298 147.536 49.2518 147.666 49.8842C147.798 50.5214 147.791 51.1489 147.644 51.7665C147.5 52.389 147.165 52.9843 146.638 53.5523C146.111 54.1204 145.326 54.6421 144.283 55.1175Z" fill="#1E293B"/>
<path id="e_5" d="M144.417 62.3789C143.866 62.5504 143.436 62.7804 143.127 63.069C142.823 63.3563 142.628 63.6833 142.541 64.05C142.455 64.4218 142.46 64.8048 142.555 65.1988C142.652 65.6032 142.805 65.9614 143.012 66.2735C143.219 66.5857 143.478 66.8879 143.79 67.1801L142.93 68.1861C142.527 67.8775 142.17 67.4892 141.859 67.021C141.549 66.5528 141.323 66.0258 141.181 65.4399C140.976 64.5897 140.983 63.8253 141.203 63.1466C141.425 62.4732 141.823 61.9053 142.397 61.4429C142.971 60.9806 143.683 60.6468 144.534 60.4415C145.358 60.2424 146.13 60.215 146.851 60.3592C147.577 60.5022 148.197 60.808 148.71 61.2765C149.229 61.7438 149.582 62.3662 149.77 63.1439C149.947 63.8749 149.932 64.5422 149.727 65.146C149.523 65.7549 149.149 66.2758 148.606 66.7086C148.07 67.1454 147.374 67.4671 146.518 67.6736C146.378 67.7074 146.237 67.736 146.095 67.7595C145.959 67.7868 145.838 67.8078 145.731 67.8225L144.417 62.3789ZM148.483 63.4711C148.351 62.9268 148.048 62.5227 147.573 62.2588C147.099 62.0002 146.443 61.9419 145.605 62.0839L146.523 65.8866C147.292 65.6845 147.845 65.3753 148.184 64.9589C148.523 64.5477 148.623 64.0518 148.483 63.4711Z" fill="#1E293B"/>
<path id="s" d="M144.059 76.674C144.085 77.2334 144.204 77.6737 144.416 77.9948C144.634 78.3158 144.919 78.4681 145.27 78.4517C145.5 78.4411 145.692 78.3841 145.847 78.2808C146.008 78.1773 146.148 77.9786 146.268 77.6847C146.393 77.3906 146.517 76.947 146.639 76.3541C146.757 75.7933 146.905 75.2979 147.082 74.8679C147.26 74.4432 147.501 74.109 147.805 73.8654C148.108 73.6217 148.508 73.4884 149.003 73.4654C149.488 73.4429 149.918 73.5591 150.293 73.814C150.668 74.0689 150.968 74.4447 151.194 74.9414C151.42 75.4435 151.549 76.0381 151.581 76.7254C151.614 77.434 151.55 78.0563 151.388 78.5924C151.226 79.1285 151.015 79.5894 150.755 79.9752L149.593 79.2763C149.796 78.9358 149.958 78.5653 150.078 78.1646C150.199 77.7692 150.248 77.3265 150.225 76.8364C150.198 76.2663 150.094 75.86 149.912 75.6176C149.73 75.3804 149.498 75.2684 149.216 75.2815C149.008 75.2911 148.835 75.3605 148.697 75.4897C148.564 75.624 148.444 75.8485 148.336 76.1632C148.233 76.4776 148.115 76.9209 147.981 77.4931C147.857 78.0487 147.704 78.5337 147.52 78.948C147.336 79.3676 147.082 79.6971 146.757 79.9364C146.437 80.1809 146.011 80.3154 145.478 80.3401C144.871 80.3683 144.365 80.2156 143.959 79.8821C143.56 79.5536 143.253 79.1086 143.041 78.5472C142.833 77.9909 142.714 77.3877 142.684 76.7378C142.648 75.9546 142.728 75.2728 142.926 74.6924C143.128 74.1117 143.391 73.619 143.714 73.2143L144.845 74.1148C144.594 74.4575 144.393 74.8459 144.242 75.28C144.097 75.7139 144.036 76.1785 144.059 76.674Z" fill="#1E293B"/>
<path id="i" d="M150.402 91.52L143.34 90.4947L143.01 92.7668L141.712 92.5783L142.662 86.031L143.961 86.2195L143.597 88.7213L149.361 89.5581L149.713 87.1355L151.011 87.324L150.402 91.52ZM154.674 90.8793C154.624 91.2276 154.478 91.492 154.236 91.6725C153.993 91.8582 153.714 91.9281 153.397 91.8821C153.08 91.8362 152.829 91.6893 152.644 91.4414C152.459 91.1989 152.391 90.9035 152.442 90.5551C152.491 90.2173 152.639 89.9559 152.887 89.771C153.135 89.586 153.417 89.5165 153.734 89.5625C154.05 89.6084 154.299 89.755 154.478 90.002C154.658 90.2491 154.723 90.5415 154.674 90.8793Z" fill="#1E293B"/>
<path id="g" d="M147.02 107.433L145.457 107.398C145.462 107.044 145.513 106.669 145.611 106.274C145.707 105.884 145.837 105.455 146 104.986C145.622 105.391 145.224 105.657 144.808 105.783C144.396 105.911 143.951 105.891 143.473 105.725C142.954 105.544 142.534 105.257 142.214 104.864C141.893 104.47 141.699 103.998 141.63 103.449C141.561 102.9 141.641 102.298 141.869 101.643C141.949 101.412 142.029 101.214 142.109 101.049C142.187 100.89 142.277 100.738 142.378 100.592C142.343 100.467 142.277 100.348 142.18 100.236C142.087 100.13 141.975 100.054 141.844 100.009C141.683 99.9526 141.519 99.969 141.353 100.058C141.19 100.154 141.039 100.4 140.9 100.798L140.417 102.189C140.219 102.758 139.946 103.225 139.599 103.59C139.255 103.961 138.872 104.212 138.448 104.341C138.028 104.478 137.607 104.472 137.184 104.325C136.388 104.048 135.89 103.491 135.69 102.654C135.49 101.816 135.614 100.752 136.063 99.4629C136.38 98.5512 136.722 97.8683 137.089 97.4143C137.456 96.9603 137.86 96.6914 138.301 96.6078C138.742 96.5241 139.23 96.5751 139.764 96.7609L139.236 98.2796C138.958 98.1832 138.711 98.1564 138.493 98.1991C138.273 98.2469 138.066 98.4036 137.872 98.6692C137.678 98.9349 137.484 99.3473 137.289 99.9064C137.095 100.466 136.988 100.926 136.97 101.286C136.945 101.65 136.995 101.936 137.121 102.143C137.24 102.354 137.42 102.501 137.662 102.586C137.984 102.698 138.282 102.643 138.557 102.423C138.831 102.202 139.051 101.855 139.215 101.381L139.691 100.014C139.954 99.258 140.3 98.7573 140.73 98.5116C141.158 98.2709 141.577 98.2215 141.985 98.3634C142.257 98.458 142.492 98.6247 142.692 98.8634C142.889 99.1072 143.031 99.405 143.118 99.757C143.536 99.3661 143.963 99.122 144.397 99.0247C144.835 98.9343 145.311 98.9784 145.825 99.1571C146.389 99.3534 146.834 99.6661 147.159 100.095C147.484 100.525 147.678 101.03 147.741 101.611C147.803 102.197 147.72 102.817 147.492 103.472C147.269 104.112 147.116 104.657 147.033 105.108C146.955 105.561 146.923 105.968 146.939 106.329C146.952 106.695 146.98 107.063 147.02 107.433ZM146.323 103.083C146.51 102.544 146.498 102.085 146.285 101.706C146.078 101.329 145.73 101.055 145.241 100.885C144.737 100.71 144.283 100.707 143.88 100.878C143.479 101.055 143.186 101.413 142.998 101.952C142.825 102.45 142.838 102.881 143.039 103.245C143.239 103.613 143.608 103.892 144.147 104.079C144.691 104.268 145.145 104.279 145.508 104.112C145.871 103.945 146.143 103.601 146.323 103.083Z" fill="#1E293B"/>
<path id="n" d="M135.824 108.781L143.133 113.018L142.358 114.353L141.342 113.921C141.539 114.443 141.614 114.967 141.567 115.495C141.52 116.022 141.37 116.505 141.116 116.944C140.72 117.626 140.233 118.025 139.655 118.14C139.079 118.262 138.447 118.124 137.759 117.726L132.43 114.637L133.328 113.086L137.889 115.73C138.314 115.976 138.67 116.149 138.958 116.248C139.246 116.347 139.492 116.353 139.695 116.268C139.896 116.187 140.082 115.999 140.253 115.704C140.39 115.469 140.469 115.215 140.49 114.944C140.512 114.673 140.49 114.402 140.426 114.13C140.366 113.861 140.281 113.609 140.171 113.372L134.925 110.332L135.824 108.781Z" fill="#1E293B"/>
<path id="e_6" d="M131.02 122.428C130.561 122.078 130.124 121.861 129.71 121.776C129.3 121.695 128.92 121.725 128.571 121.867C128.218 122.013 127.909 122.238 127.643 122.544C127.37 122.858 127.166 123.19 127.032 123.539C126.897 123.889 126.801 124.276 126.744 124.699L125.426 124.581C125.443 124.073 125.553 123.557 125.755 123.033C125.956 122.508 126.255 122.019 126.65 121.564C127.224 120.904 127.852 120.467 128.532 120.254C129.21 120.044 129.903 120.039 130.613 120.239C131.322 120.439 132.007 120.826 132.667 121.4C133.307 121.957 133.777 122.57 134.077 123.241C134.381 123.916 134.491 124.598 134.406 125.288C134.326 125.982 134.023 126.63 133.498 127.234C133.005 127.801 132.453 128.176 131.842 128.359C131.227 128.545 130.586 128.543 129.919 128.351C129.252 128.167 128.586 127.786 127.922 127.208C127.814 127.114 127.709 127.015 127.607 126.913C127.506 126.818 127.419 126.731 127.345 126.653L131.02 122.428ZM132.486 126.375C132.853 125.952 133.007 125.471 132.947 124.931C132.883 124.394 132.55 123.826 131.949 123.225L129.382 126.177C129.992 126.686 130.565 126.958 131.1 126.993C131.632 127.031 132.094 126.825 132.486 126.375Z" fill="#1E293B"/>
<path id="r_2" d="M120.802 127.661L121.591 128.669L120.615 129.433L124.25 134.075L125.227 133.31L126.011 134.312L123.958 135.92L122.491 134.579C122.681 135.332 122.706 135.996 122.568 136.572C122.428 137.155 122.069 137.673 121.49 138.127C121.292 138.282 121.103 138.403 120.921 138.491C120.739 138.587 120.55 138.67 120.355 138.741L119.83 137.202C119.994 137.134 120.141 137.063 120.272 136.988C120.406 136.917 120.544 136.825 120.687 136.713C121.17 136.335 121.446 135.827 121.516 135.19C121.582 134.556 121.456 133.828 121.138 133.007L119.204 130.538L117.863 131.589L117.073 130.581L120.802 127.661ZM119.683 135.315L120.966 136.952L121.426 137.903L120.355 138.741L118.676 136.104L119.683 135.315Z" fill="#1E293B"/>
<path id="._2" d="M98.5981 141.32C98.6786 141.596 98.6869 141.863 98.623 142.121C98.5554 142.385 98.4284 142.616 98.2418 142.815C98.0553 143.014 97.8237 143.153 97.5472 143.234C97.2656 143.316 96.9927 143.323 96.7287 143.255C96.4646 143.188 96.2357 143.06 96.0421 142.872C95.8449 142.691 95.706 142.462 95.6255 142.185C95.5465 141.914 95.54 141.643 95.6061 141.374C95.6685 141.112 95.793 140.881 95.9796 140.682C96.1661 140.483 96.4002 140.343 96.6819 140.261C96.9584 140.181 97.2287 140.174 97.4927 140.242C97.7568 140.309 97.9882 140.436 98.1869 140.623C98.3821 140.816 98.5191 141.048 98.5981 141.32Z" fill="#1E293B"/>
</g>
</svg>
